<svg width="1120" height="760" viewBox="0 0 1120 760" fill="none" xmlns="http://www.w3.org/2000/svg">
  <rect width="1120" height="760" rx="18" fill="#101018"/>
  <rect x="28" y="28" width="1064" height="704" rx="14" fill="#171722" stroke="#2A2A38" stroke-width="2"/>
  <rect x="28" y="28" width="1064" height="58" rx="14" fill="#1F1F2D"/>
  <text x="58" y="65" fill="#F4F4F5" font-family="Menlo, Consolas, monospace" font-size="24" font-weight="700">PomoVault.md</text>
  <circle cx="1038" cy="57" r="9" fill="#00FFFF"/>
  <circle cx="1006" cy="57" r="9" fill="#FF00FF"/>
  <circle cx="974" cy="57" r="9" fill="#00FF88"/>
  <text x="70" y="152" fill="#00FFFF" font-family="Menlo, Consolas, monospace" font-size="22">$ pomovault render</text>
  <rect x="70" y="185" width="980" height="186" rx="8" fill="#0A0A0F" stroke="#00FFFF" stroke-opacity="0.45"/>
  <text x="104" y="235" fill="#00FFFF" font-family="Menlo, Consolas, monospace" font-size="24">Work · Session 1/4</text>
  <text x="104" y="322" fill="#00FFFF" font-family="Menlo, Consolas, monospace" font-size="90" font-weight="700">25:00</text>
  <rect x="760" y="242" width="112" height="48" rx="4" fill="#1E1E2B" stroke="#8B8B9E"/>
  <text x="789" y="274" fill="#F4F4F5" font-family="Menlo, Consolas, monospace" font-size="18">Pause</text>
  <rect x="892" y="242" width="112" height="48" rx="4" fill="#1E1E2B" stroke="#8B8B9E"/>
  <text x="925" y="274" fill="#F4F4F5" font-family="Menlo, Consolas, monospace" font-size="18">Reset</text>
  <rect x="70" y="400" width="980" height="104" rx="8" fill="#201B17" stroke="#FFB020" stroke-opacity="0.45"/>
  <text x="104" y="440" fill="#FFB020" font-family="Menlo, Consolas, monospace" font-size="18" font-weight="700">NOW WORKING ON</text>
  <text x="104" y="478" fill="#F4F4F5" font-family="Inter, system-ui, sans-serif" font-size="26">Draft launch post</text>
  <rect x="70" y="532" width="980" height="136" rx="8" fill="#12121A" stroke="#2A2A38"/>
  <text x="104" y="574" fill="#F4F4F5" font-family="Menlo, Consolas, monospace" font-size="26" font-weight="700">Tasks</text>
  <rect x="864" y="546" width="140" height="42" rx="4" fill="#00FFFF"/>
  <text x="895" y="574" fill="#0A0A0F" font-family="Menlo, Consolas, monospace" font-size="16" font-weight="700">+ Add Task</text>
  <rect x="104" y="610" width="108" height="38" rx="4" fill="#1E1E2B" stroke="#8B8B9E"/>
  <text x="132" y="635" fill="#F4F4F5" font-family="Menlo, Consolas, monospace" font-size="16">Start</text>
  <rect x="232" y="610" width="92" height="38" rx="19" fill="#4A1020"/>
  <text x="254" y="635" fill="#FF7AAE" font-family="Menlo, Consolas, monospace" font-size="14" font-weight="700">HIGH</text>
  <text x="346" y="635" fill="#F4F4F5" font-family="Inter, system-ui, sans-serif" font-size="22">Draft launch post</text>
  <text x="698" y="635" fill="#A1A1AA" font-family="Menlo, Consolas, monospace" font-size="17">2026-05-04</text>
  <rect x="892" y="610" width="92" height="38" rx="4" fill="#1E1E2B" stroke="#8B8B9E"/>
  <text x="916" y="635" fill="#F4F4F5" font-family="Menlo, Consolas, monospace" font-size="16">Done</text>
</svg>
